<svg width="56" height="56" viewBox="0 0 56 56" fill="none" xmlns="http://www.w3.org/2000/svg">
<rect width="56" height="55.5556" fill="#C4C4C4"/>
<rect x="15.1113" y="14.2222" width="26.2222" height="20.4444" rx="1" fill="white"/>
<path d="M29.419 43.547C28.8427 43.9792 28.5546 44.1953 28.222 44.1957C27.8894 44.1962 27.6007 43.9809 27.0233 43.5503L15.1112 34.6667L41.5557 34.4445L29.419 43.547Z" fill="white"/>
<path d="M20.7499 31.4067L26.8601 20.4956C26.8778 20.464 26.9111 20.4445 26.9473 20.4445H29.718C29.7547 20.4445 29.7885 20.4646 29.806 20.4969L35.698 31.4081C35.7339 31.4747 35.6857 31.5556 35.61 31.5556H32.2221L28.6545 25.4114C28.4617 25.0794 27.9824 25.0795 27.7897 25.4114L24.2221 31.5556H20.8371C20.7607 31.5556 20.7125 31.4734 20.7499 31.4067Z" fill="#C4C4C4"/>
</svg>
