<svg width="56" height="56" viewBox="0 0 56 56" fill="none" xmlns="http://www.w3.org/2000/svg">
<rect width="56" height="55.5556" fill="#BB1333"/>
<rect x="15.1113" y="14.2222" width="26.2222" height="20.4444" rx="1" fill="white"/>
<path d="M29.419 43.5469C28.8427 43.9791 28.5546 44.1952 28.222 44.1956C27.8894 44.1961 27.6007 43.9808 27.0233 43.5501L15.1112 34.6666L41.5557 34.4443L29.419 43.5469Z" fill="white"/>
<path d="M20.7499 31.4066L26.8601 20.4955C26.8778 20.4639 26.9111 20.4443 26.9473 20.4443H29.718C29.7547 20.4443 29.7885 20.4645 29.806 20.4968L35.698 31.4079C35.7339 31.4746 35.6857 31.5554 35.61 31.5554H32.2221L28.6545 25.4112C28.4617 25.0793 27.9824 25.0793 27.7897 25.4112L24.2221 31.5554H20.8371C20.7607 31.5554 20.7125 31.4732 20.7499 31.4066Z" fill="#BB1333"/>
</svg>
