<svg width="17" height="22" viewBox="0 0 17 22" fill="none" xmlns="http://www.w3.org/2000/svg">
<path d="M8.78104 22H8.22454L8.11546 21.956C7.79686 21.8166 7.52726 21.5869 7.3408 21.296L5.24833 18.3767C3.98395 16.6167 2.72253 14.8567 1.46408 13.0968C0.658826 11.9558 0.170646 10.626 0.048323 9.24023C-0.142416 7.49342 0.234585 5.73196 1.1247 4.21109C2.01481 2.69023 3.3718 1.48897 4.99902 0.781375C8.18892 -0.584801 11.2987 -0.153608 13.99 2.02875C14.8158 2.68981 15.5011 3.50578 16.0066 4.42967C16.512 5.35357 16.8275 6.36715 16.935 7.41206C17.2012 9.50702 16.6434 11.623 15.3768 13.3234C13.4832 15.9633 11.5903 18.6033 9.69817 21.2432C9.50711 21.5609 9.21973 21.811 8.87676 21.9582L8.78104 22ZM8.50724 20.8032C8.58342 20.7276 8.65132 20.6443 8.70981 20.5546C10.6019 17.9147 12.4948 15.2747 14.3884 12.6348C15.475 11.1745 15.9531 9.35785 15.724 7.55946C15.6349 6.66702 15.3682 5.8008 14.9392 5.01059C14.5102 4.22038 13.9273 3.52177 13.2242 2.95494C10.8713 1.04757 8.26683 0.686777 5.48207 1.87916C4.08954 2.48632 2.92889 3.51605 2.16841 4.81904C1.40793 6.12203 1.08716 7.63054 1.25261 9.12583C1.35548 10.3013 1.76757 11.4298 2.44799 12.3994C3.7005 14.1593 4.96192 15.9193 6.23224 17.6793C6.9327 18.6531 7.63167 19.6284 8.32916 20.6052C8.38023 20.6781 8.44003 20.7446 8.50724 20.8032ZM8.48498 11.6096H8.45382C7.6042 11.5873 6.7968 11.2387 6.20292 10.6378C5.60904 10.0369 5.27541 9.231 5.27282 8.39104C5.28339 7.54225 5.63397 6.73221 6.24774 6.13841C6.86152 5.54461 7.68844 5.21546 8.54731 5.2231C9.39655 5.24256 10.2046 5.58851 10.7999 6.18746C11.3951 6.78641 11.7306 7.59113 11.735 8.43064C11.7274 9.27713 11.3814 10.0863 10.7726 10.6818C10.1638 11.2773 9.34154 11.6108 8.48498 11.6096ZM8.50724 6.41768C7.97298 6.41681 7.46004 6.6248 7.08036 6.99627C6.89078 7.17875 6.73967 7.39655 6.63574 7.63708C6.53182 7.87761 6.47714 8.13611 6.47488 8.39764C6.47526 8.92232 6.68269 9.42617 7.05307 9.80207C7.42345 10.178 7.92757 10.3963 8.45827 10.4106C8.7262 10.4141 8.9922 10.3652 9.24097 10.2669C9.48975 10.1685 9.71641 10.0225 9.90794 9.83728C10.0995 9.65208 10.2521 9.43131 10.3571 9.18765C10.462 8.944 10.5173 8.68225 10.5196 8.41744C10.5168 7.89338 10.3074 7.39105 9.93575 7.01721C9.56413 6.64337 9.05964 6.4275 8.5295 6.41548H8.50724V6.41768Z" fill="#5214FF"/>
</svg>
