<svg width="16" height="19" viewBox="0 0 16 19" fill="none" xmlns="http://www.w3.org/2000/svg">
<path d="M7.76104 0C4.98683 0 2.73919 2.22966 2.73919 4.98167V7.24607H1.3696C0.618737 7.24607 0 7.85986 0 8.60471V17.2094C0 17.9543 0.618737 18.5681 1.3696 18.5681H14.1525C14.9033 18.5681 15.5221 17.9543 15.5221 17.2094V8.60471C15.5221 7.85986 14.9033 7.24607 14.1525 7.24607H12.7829V4.98167C12.7829 2.22966 10.5352 0 7.76104 0ZM7.76104 0.905759C10.0452 0.905759 11.8698 2.71578 11.8698 4.98167V7.24607H3.65225V4.98167C3.65225 2.71578 5.47687 0.905759 7.76104 0.905759ZM1.3696 8.15183H14.1525C14.4133 8.15183 14.609 8.34598 14.609 8.60471V17.2094C14.609 17.4681 14.4133 17.6623 14.1525 17.6623H1.3696C1.10878 17.6623 0.913063 17.4681 0.913063 17.2094V8.60471C0.913063 8.34598 1.10878 8.15183 1.3696 8.15183ZM7.76104 9.96335C6.7579 9.96335 5.93491 10.7798 5.93491 11.7749C5.93491 12.2191 6.12184 12.6053 6.39144 12.9212V14.4921C6.39144 15.237 7.01018 15.8508 7.76104 15.8508C8.5119 15.8508 9.13063 15.237 9.13063 14.4921V12.9212C9.40026 12.6053 9.58716 12.2191 9.58716 11.7749C9.58716 10.7798 8.76418 9.96335 7.76104 9.96335ZM7.76104 10.8691C8.27071 10.8691 8.6741 11.2693 8.6741 11.7749C8.6741 12.0456 8.55495 12.2805 8.36738 12.4471C8.27231 12.5327 8.21638 12.6595 8.21757 12.7868V14.4921C8.21757 14.7509 8.02186 14.945 7.76104 14.945C7.50022 14.945 7.30451 14.7509 7.30451 14.4921V12.7868C7.30679 12.6595 7.24977 12.5327 7.15472 12.4471C6.96715 12.2805 6.84798 12.0456 6.84798 11.7749C6.84798 11.2693 7.25137 10.8691 7.76104 10.8691Z" fill="#626262"/>
</svg>
